<?xml version="1.0" encoding="UTF-8"?>
<svg xmlns="http://www.w3.org/2000/svg" xmlns:xlink="http://www.w3.org/1999/xlink" width="16px" height="14px" viewBox="0 0 15 14" version="1.1">
<g id="surface1">
<path style=" stroke:none;fill-rule:nonzero;fill:rgb(6.666667%,52.156866%,99.607843%);fill-opacity:1;" d="M 3.394531 1.164062 C 5.054688 2.480469 6.84375 5.15625 7.5 6.589844 C 8.15625 5.15625 9.945312 2.480469 11.605469 1.164062 C 12.804688 0.210938 14.75 -0.523438 14.75 1.816406 C 14.75 2.285156 14.496094 5.75 14.347656 6.308594 C 13.828125 8.265625 11.945312 8.761719 10.265625 8.460938 C 13.199219 8.988281 13.945312 10.734375 12.332031 12.480469 C 9.273438 15.800781 7.9375 11.648438 7.59375 10.585938 C 7.53125 10.390625 7.5 10.300781 7.5 10.378906 C 7.5 10.300781 7.46875 10.390625 7.40625 10.585938 C 7.0625 11.648438 5.726562 15.800781 2.667969 12.480469 C 1.054688 10.734375 1.800781 8.988281 4.734375 8.460938 C 3.054688 8.761719 1.171875 8.265625 0.652344 6.308594 C 0.503906 5.75 0.25 2.285156 0.25 1.816406 C 0.25 -0.523438 2.195312 0.210938 3.394531 1.164062 Z M 3.394531 1.164062 "/>
</g>
</svg>
